
<svg xmlns="http://www.w3.org/2000/svg" version="1.1" xmlns:xlink="http://www.w3.org/1999/xlink" preserveAspectRatio="none" x="0px" y="0px" width="1025px" height="630px" viewBox="0 0 1025 630">
<defs>
<g id="OpenedAnimate_Logo_0_Layer0_0_FILL">
<path fill="#009B5E" stroke="none" d="
M 650.45 -96.1
Q 649.35 -96.7 648.75 -96.9 646.6 -97.7 644 -97.6 642.480859375 -97.5611328125 640.45 -97.25 640.0916015625 -97.35 639.65 -97.35 639.05 -97.35 637.85 -96.7 636.05 -95.75 635.7 -95.5 633 -93.75 631 -89.5 630.15 -87.7 629.75 -86.2
L 629.35 -84.5
Q 629.05 -83 628.9 -81.7 628.6 -78.6 629.05 -75.5 629.8 -70.6 632.25 -67.15 633.6 -65.35 635.05 -64.45 636.35 -63.65 638.2 -63.3 639.65 -63.15 641.05 -63.15
L 652.3 -63.05
Q 654.55 -63.05 655.65 -63.35 656.75 -63.75 657.15 -64.3 657.9 -65.2 657.4 -66.3 657.2294921875 -66.5984375 657 -66.85 656.8662109375 -67.2951171875 656.1 -67.9
L 654.4 -69.1
Q 653.15 -70.05 652.55 -70.3 651.7 -70.65 650.25 -70.9 648.4 -71.25 647.85 -71.4 646.3 -71.95 645.55 -72.2
L 642.5 -73 641.2 -73.5
Q 640.2 -73.85 639.65 -74.4 639.25 -75 638.95 -75.25 638.35 -75.6 638.05 -75.8
L 637.65 -76.05
Q 637.45 -76.2 637.35 -76.7 637.2 -77.35 637.2 -78.65 637.1 -79.35 636.7 -80.7
L 636.6 -81.25
Q 638.7775390625 -81.57109375 640.95 -81.65 642.1 -81.65 644.3 -81.65 646.3 -81.7 647.65 -81.9 648.75 -82.05 650.95 -82.75
L 652.2 -83.25
Q 652.65 -83.55 653.45 -84.35 654.9 -85.9 655.35 -87.05 655.9 -88.3 655.8 -90.2 655.8 -91.4 655.45 -92.1 655.1 -92.75 654.45 -93.35 652.75 -94.9 650.45 -96.1
M 648.1 -92.75
Q 649.55 -92.05 650.85 -91.2 651.35 -90.8 651.5 -90.55 652 -89.9 651.75 -88.95 651.6 -88.3 650.9 -87.45
L 650.25 -86.85 649.45 -86.5
Q 647.8 -85.85 645.5 -85.7 642.75 -85.65 641.35 -85.65 638 -85.65 634 -85 633.780078125 -84.96484375 633.55 -84.95 633.9875 -86.36171875 634.6 -87.75 636 -90.7 637.75 -92.05
L 639.1 -92.9
Q 639.7705078125 -92.9109375 640.7 -93.15 642.9 -93.6 644.95 -93.55 646.25 -93.45 646.8 -93.3
L 648.1 -92.75
M 649.5 -69
Q 650.5 -68.85 651.15 -68.65 652.1962890625 -68.2892578125 653.7 -67.15
L 652.75 -67.05
Q 645.55 -67.2 641.95 -67.15 639.85 -67.15 639.3 -67.25 637.7 -67.4 636.8 -68.15 635.85 -68.8 634.9 -70.55
L 634.1 -72
Q 633.8 -72.7 633.65 -73.4 632.6 -76.9 632.85 -80.65 632.8611328125 -80.81484375 632.85 -81 633.265234375 -80.85 633.75 -80.85 634.1064453125 -80.85 634.6 -80.9
L 634.8 -79.7 635.15 -78.55
Q 635.15 -78.45 635.3 -77 635.4 -75.9 635.55 -75.45 635.85 -74.6 636.3 -74.3
L 637.15 -73.95
Q 637.5 -73.8 637.9 -73.35
L 638.6 -72.65
Q 639.2 -72.1 640.7 -71.5
L 643.95 -70.55
Q 644.55 -70.4 645.9 -69.9 647.1 -69.45 647.8 -69.3 648.2 -69.2 649.5 -69
M 546.05 -100.15
Q 545.15 -100.15 542.85 -99.6 540.65 -99.1 538.9 -98.9 537.4 -98.75 536.85 -98.6 535.7 -98.35 535 -97.75 534 -96.9 533.5 -94.65 532.8 -91.5 532.85 -87.1 532.939453125 -85.256640625 533 -83.75 529.43359375 -83.68515625 525.75 -83.05 523 -82.55 521.75 -81.4 520.2 -79.9 520 -76.5 520.1 -71.7 520 -69.3 519.9 -67.25 520 -66.55 520.25 -64.9 521.35 -64.15 522.25 -63.55 523.75 -63.75 524.6 -63.85 526.2 -64.25 527.3 -64.45 529.55 -64.45
L 533.3 -64.45 533.3 -60.9
Q 533.3 -52.85 533 -48.8 532.8 -46.1 533.7 -45.15 534.4 -44.5 535.75 -44.35 536.5 -44.3 538.1 -44.25 539.25 -44.15 541.45 -43.45 543.85 -42.8 546.05 -42.95 548 -43.05 548.85 -43.85 549.85 -44.8 549.95 -47.15 550.15 -50.05 550.15 -57.95
L 550 -64.65
Q 550.9892578125 -64.752734375 553.15 -65.1 555.4 -65.45 556.8 -65.5 558.85 -65.55 559.05 -65.6 560.25 -65.75 560.95 -66.4 561.95 -67.3 562.05 -69.95 562.15 -72.45 562.15 -77.5 562.15 -80.7 561.75 -82.6 561.2 -85.7 559.2 -86.65 558.05 -87.2 555.45 -86.8
L 549.55 -85.95 549.35 -96.35
Q 549.25 -98.15 548.85 -98.8 548 -100.05 546.05 -100.15
M 549.45 -80.05
Q 549.8 -80.05 550.45 -80.15 551 -80.2 551.4 -80.1 551.4279296875 -80.0927734375 551.45 -80.1
L 556.05 -80.7
Q 556.2 -76.6 556.1 -71.6 554.75 -71.3791015625 553.55 -71.2 552.1677734375 -70.99453125 551 -70.85 550.4203125 -70.7806640625 549.9 -70.75
L 549.9 -70.85
Q 547.586328125 -70.810546875 544.85 -70.6 544.15 -66.75 544.2 -64.05 544.280859375 -62.5130859375 544.1 -61.75
L 544.1 -49 539.1 -50.25
Q 539.26640625 -53.511328125 539.25 -60.2 538.6962890625 -60.7021484375 538.45 -61.4 538.2 -62.1 538.2 -63.2 538.1 -67.05 538.7 -70.5
L 534.2 -70.6
Q 533.7130859375 -70.6 533.3 -70.65
L 533.3 -70.45 525.95 -70.4 526 -76.1
Q 526 -76.75 526.25 -76.95 526.5 -77.1 526.75 -77.1 527.8892578125 -77.2830078125 529 -77.45 529.4572265625 -79.066796875 531.1 -79.55
L 534.35 -79.95
Q 535.05 -80.05 536.45 -80.05
L 539.4 -80.05
Q 539.5302734375 -83.0388671875 539.75 -85.4 539.95 -88.05 539.35 -89.2 539.2 -89.6 538.85 -90.3 538.8 -90.7 539.15 -91.55 539.45 -92.4 539.35 -92.85
L 543.4 -93.5 543.65 -84.3
Q 542.7298828125 -83.2591796875 542.95 -81.85 543.1583984375 -80.897265625 543.8 -80.3
L 543.8 -80.05 549.45 -80.05
M 485.3 -68.15
Q 484.3412109375 -68.123828125 482.9 -67.7 478.9 -66.5 477.35 -64.9 476.55 -64.05 475.5 -62.15 474.3 -60 474 -58.65 473.85 -57.75 473.95 -54.55 473.95 -52.9 474 -52.05 474.1 -50.65 474.5 -49.7 474.8 -49 475.4 -48.1 475.75 -47.6 476.45 -46.65 477.45 -45.25 479.05 -42.2 480.65 -39.5 482.55 -38.5 484.45 -37.45 487.3 -37.45 489.8 -37.35 492.2 -37.9 494.1 -38.35 496.5 -39.3 499 -40.3 500.45 -41.35 503.259375 -43.2978515625 504.8 -46.25 505.7181640625 -44.4998046875 506.1 -43.25 506.4 -42 506.6 -41.35 506.85 -40.25 507.2 -39.5 508.2 -37.35 510.05 -37.05 511.25 -36.9 512.3 -37.85 513.25 -38.75 513.3 -40 513.3 -40.85 512.4 -43.1 511.95 -44.3 511.25 -46.8 510.7 -48.25 509.3 -50.65 507.75 -53.25 507.25 -54.45 506.7 -55.75 505.75 -58.4 505.7001953125 -58.5130859375 505.65 -58.65 505.2484375 -59.7552734375 504.7 -60.7 502.65 -64.25 498.1 -66.3 494.012890625 -68.07109375 490.4 -67.5 490.01953125 -67.5529296875 489.8 -67.6 486.9 -68.2 486.15 -68.2 485.71796875 -68.18125 485.3 -68.15
M 480.75 -51.15
Q 480.25 -51.9 480.05 -52.6 479.9 -53.2 479.9 -53.85 479.7 -56.95 480.3 -58.4 480.65 -59.3 481.85 -60.8 482.1 -59.1 483.75 -58.45 485.4 -57.85 486.7 -59 487.15 -59.4 487.9 -60.25 488.4 -60.7 489.3 -61.05 489.97578125 -61.314453125 490.55 -61.45
L 491.55 -61.3
Q 494.5 -60.9 496.1 -60.2 498.790234375 -58.9029296875 500.15 -56.15 500.294140625 -55.6181640625 500.4 -55.05 500.8 -52.75 500.1 -50.55 499.35 -48.25 497.65 -46.8 496.3 -45.65 493.5 -44.6 491.45 -43.8 490.2 -43.65 489.4 -43.5 486.9 -43.5 486.05 -43.5 485.65 -43.7 485 -44 484.3 -45.15
L 480.75 -51.15
M 613.75 -69.25
Q 612.35 -71.8 611.5 -72.95 609.9 -74.85 609.15 -75.9
L 607.45 -78.65
Q 605.45 -81.35 600.8 -83.55 598.6 -84.55 596.8 -84.95 595 -85.25 592.55 -85 592.2 -84.95 588.3 -84.35 585.5 -83.9 584.5 -83.3 583.95 -83 583.2 -82.3 582.25 -81.45 582 -81.25 580.15 -79.95 579.25 -79.25 576.15 -76.95 575.4 -73.45 575.1 -71.95 575.3 -69.5 575.65 -65.2 577.3 -63.05 578.5 -61.5 580.95 -59.95 582.9 -58.65 584.2 -58 587.8 -56.1 591.65 -55.7 595.8 -55.25 599.25 -56.7 602.1 -57.9 605.45 -61 607.85 -63.3 609.2 -65.15 610.25 -64.1 610.9 -61.95 611.85 -59.15 612.2 -58.5 613.4 -56.55 615.05 -56.35 616.5 -56.2 617.45 -57.15 618.5 -58.15 618.35 -59.5 618.3 -60.25 617.75 -61.25 617 -62.75 616.9 -63
L 616.25 -65.15
Q 615.9 -66.05 615.1 -67.25 614.2 -68.55 613.75 -69.25
M 587.45 -76.95
Q 589.4 -78 592.95 -78
L 596.3 -77.9
Q 599.4 -77.6 600.7 -76.65 601.45 -76.1 602.35 -74.9 603.2 -73.8 603.65 -72.9 604.3 -71.55 604.35 -70.2 604.45 -69.25 604.15 -68.55 603.9 -67.9 603.15 -67.15 601.7 -65.6 599.85 -64.1
L 598.45 -63
Q 596 -61.5 593 -61.6 590.25 -61.65 587.5 -63.05 587.1 -63.25 584.5 -64.8 582.4 -66.1 581.8 -67.3 581.5 -67.85 581.3 -69.6 581 -72.55 582 -73.7 582.35 -74.05 582.55 -74.05 582.7 -74.1 583.2 -73.95 584.2 -73.7 585.2 -74.2 586.15 -74.7 586.55 -75.65 586.8 -76.45 586.9 -76.55 587.05 -76.75 587.45 -76.95
M 400.3 -79.15
Q 398.25 -76.75 397.65 -75.9 396.55 -74.45 395.7 -72.65 395 -71 394.35 -69.1
L 392.45 -63.75
Q 391.6 -61.15 391.1 -59.1 390.7 -57.45 390.2 -54.05 389.1 -46.95 388.95 -43.4 388.85 -40.15 389.3 -34.3 389.75 -27.9 389.75 -25.2 389.75 -22.15 390.85 -21.1 391.05 -20.95 392.7 -20.05 393 -19.9 395.2 -18.2 396.75 -17.1 398.65 -16.7 400.6 -16.3 402.4 -16.8 404.25 -17.25 405.7 -18.55 407.2 -19.9 407.75 -21.7 408.2 -23.3 408.1 -26.6 408.1 -28.05 408.1 -31 408.05 -33.6 407.9 -35.35 407.75 -36.95 407.3 -40 407.15 -41.85 407.15 -43.7 407.15 -46.35 407.5 -47.65 408.05 -49.7 409.85 -51.65 411 -52.9 413.45 -54.85 415.55 -49.5 417.2 -46.65 419.95 -41.85 423.5 -40.5 426.65 -39.35 429.55 -40.65 431.15 -41.35 431.85 -42.4 432.4 -43.2 433.05 -45.2
L 433.9 -48.35
Q 434.55 -50.55 435 -51.55 435.7 -53.25 436.75 -54.3 437.65 -55.2 439.65 -56.35 440.4 -48.05 440.85 -43.9 441.6 -36.55 443.25 -31.8 444.65 -27.75 446.9 -26.25 447.9 -25.6 449.65 -25.05 451.3 -24.6 452.35 -24.65 453.9 -24.65 454.9 -25.6 456 -26.65 456.2 -29.5
L 457.25 -43.4
Q 457.45 -46.65 457.95 -50.65 458.9 -58.5 460.7 -67.6 461.65 -72.6 461.85 -74.75 462.2 -78.75 461.25 -81.8 460.6 -83.9 459.5 -84.9 458.4 -86 455.7 -86.7 454.2 -87.1 450.1 -87.9 446.55 -88.6 444.55 -89.2 442.85 -89.75 442.1 -89.85 440.7 -90.05 439.7 -89.6 438.6 -89.05 437.3 -87.1 434.1 -82.35 432.55 -79.7 430.05 -75.55 428.6 -71.9 428.25 -76.3 427.25 -78.75 426.7 -80.05 425.55 -81.75 424.25 -83.65 423.65 -84.65 422.85 -85.95 422.65 -86.2 422 -87.05 421.3 -87.4 420.2 -88 418 -87.9 414.4 -87.7 412.05 -87.25 408.85 -86.55 406.55 -85.15 405.1 -84.25 403.75 -82.9 402.5 -81.75 400.3 -79.15
M 400.45 -68.15
Q 400.8 -69.45 401.15 -70.15 401.7 -71.45 403.35 -73.4 405.65 -76.2 406.9 -77.5 408.6 -79.2 409.8 -79.95 411.5 -81 413.95 -81.45 415.35 -81.7 418.35 -81.9
L 420.2 -79
Q 421.4 -77.05 421.7 -76.15 422.1 -75.15 422.4 -73.05 423.5 -65.65 423.45 -61.85 423.45 -59.4 423.65 -58.5 424.2 -56.55 425.6 -55.9 426.55 -55.55 427.55 -55.85 428.55 -56.2 429.1 -57.05 429.5 -57.6 430.05 -59.75 430.55 -62.15 432.55 -66.3 435.25 -72.15 436.95 -75.2 439.55 -80 442.25 -83.5
L 454.2 -80.9
Q 454.85 -80.8 455.15 -80.55 455.4 -80.3 455.6 -79.65 456.05 -77.8 455.9 -75.35 455.8 -73.85 455.3 -71.1 452.7 -57.05 452.3 -53.9
L 451.35 -45.65
Q 451 -39.3 450.75 -36.15 450.65 -34.55 450.25 -31.35 449.45 -31.95 449 -33.35 447.55 -37.45 446.9 -43.35 446.5 -46.75 446 -53.6 445.85 -56.1 445.35 -58.25 444.55 -62.05 442.25 -63 440.85 -63.55 439 -62.95 438 -62.6 436.1 -61.4 433.2 -59.45 431.85 -57.95 430.15 -55.95 428.9 -52.35 427.7 -48.15 426.9 -46.15 425.75 -45.85 424.4 -47 422.6 -48.6 420.85 -52.85
L 418.95 -57.35
Q 418.35 -58.75 417.95 -59.4 417.25 -60.45 416.35 -60.9 415.3 -61.45 413.8 -61.3 412.2 -61.15 410.85 -60.4 409.7 -59.8 408 -58.2 402.65 -53.25 401.6 -48.9 401.2 -47.35 401.2 -44.15 401.15 -41.75 401.35 -39.45 401.8 -35.95 401.95 -34.2 402.1 -32.85 402.1 -30.05
L 402.1 -24.7
Q 402.1 -23.8 401.9 -23.4 401.6 -22.9 400.9 -22.7 400.3 -22.55 399.65 -22.75 399.05 -22.95 397.5 -24.05 396.45 -24.75 396.1 -25.35 395.85 -25.8 395.75 -27.1 395.7 -28.45 395.2 -35 394.85 -39.85 394.95 -42.9 395.1 -47.3 396.45 -54.95 397.4 -60.65 398.7 -63.55 399.8 -65.85 399.9 -66.15 400.05 -66.55 400.45 -68.15
M 353.05 -133.65
Q 351.1 -133.25 349.35 -131.4 344.65 -126.55 344.35 -117.2 344.25 -114.4 344.75 -112.6 345.2 -110.95 346.5 -109 347.25 -107.85 348.85 -105.65 350.5 -103.35 350.7 -103.1 351.8 -101.7 353 -101.1 354.6 -100.3 356.85 -100.4 360.15 -100.45 363.15 -101.85 364.25 -102.35 367.05 -104.15 369.3 -105.7 370.45 -106.75 372.15 -108.35 372.9 -110.1 373.5 -111.55 373.7 -114.75 374 -118.25 373.5 -120.45 373.2 -121.9 372.1 -124.35 370.8 -127.35 370 -128.85 368.7 -131.3 367.2 -132.95 365.85 -134.45 364.5 -135.05 363.2 -135.65 360.55 -135.65 357.9 -135.55 356.45 -134.8 355.35 -134.1 354.7 -133.9 353.6 -133.75 353.05 -133.65
M 351.55 -123.8
Q 352.6 -126.45 354 -127.45 355.25 -127 356.9 -128.05 357.35 -128.3 358.2 -128.9 359 -129.35 359.65 -129.5
L 360.8 -129.55
Q 361.8 -129.55 362.2 -129.35 362.6 -129.15 363.1 -128.55 364.9 -126.25 367.15 -120.65 367.65 -119.35 367.7 -118.9 367.85 -118.15 367.75 -115.5 367.65 -113.35 367.4 -112.8 367.05 -111.85 366.15 -110.95 365.65 -110.55 364.3 -109.55 362.15 -108.05 360.85 -107.45 358.85 -106.45 357.1 -106.35 356.25 -106.35 355.85 -106.55 355.45 -106.75 354.9 -107.5
L 352.7 -110.5
Q 351.15 -112.65 350.65 -114 350.3 -115.1 350.3 -117.45 350.35 -118.9 350.7 -120.75 350.95 -122.1 351.55 -123.8
M 357.95 -114.75
L 358.3 -114.85 360.75 -115.15
Q 360.95 -115.2 361.05 -115.4 361.3 -115.65 361.3 -116.05 361.3 -116.5 361.05 -116.75
L 360.75 -116.95
Q 360.45 -117.15 359.9 -117.05
L 357.25 -116.7 356 -116.75 355.6 -116.7
Q 355.1 -116.6 354.9 -116.25 354.65 -115.95 354.75 -115.55
L 354.85 -115.25 354.95 -115.1
Q 355.1 -114.85 355.45 -114.75
L 355.85 -114.7 357.55 -114.7 357.95 -114.75
M 360.6 -123.15
Q 360.7 -123.05 360.6 -123 360.55 -122.75 360.6 -122.55 360.8 -121.9 361.3 -121.85 361.9 -121.7 362.3 -122.1 362.75 -122.6 362.5 -123.1 362.35 -123.7 361.65 -123.8 360.95 -123.8 360.7 -123.25
L 360.6 -123.15
M 353.9 -123.05
Q 353.15 -123.35 352.7 -122.7
L 352.55 -122.25
Q 352.45 -121.6 353.05 -121.25 353.65 -120.9 354.15 -121.35 354.4 -121.55 354.5 -121.95 354.7 -122.7 353.9 -123.05
M 378.2 -71.65
Q 378.2 -76.9 378.05 -79.55 377.95 -82.3 377 -83.45 376.05 -84.6 373.85 -85.05 371 -85.6 368.5 -85.05 367.05 -84.7 364.1 -83.45 361.3 -82.3 359.7 -82 357.2 -81.75 356 -81.3
L 354.45 -80.65
Q 353.7 -80.4 353.3 -80.25 352.65 -80.05 352.3 -79.75 351.1 -78.8 351.2 -75.95 352.05 -49.7 351.05 -23.5 351.05 -21.35 351.6 -20.55 352.6 -19.15 355.9 -19.25 357.2 -19.3 359.7 -19.5 361.95 -19.65 363.5 -19.65 364.6 -19.65 366.8 -19.6 368.7 -19.65 370.1 -19.85 372.6 -20.2 373.85 -21.6 374.95 -22.85 375.35 -25.95
L 376.7 -34.65
Q 377.45 -40.25 377.55 -41.4 377.8 -43.85 378 -48.75 378.2 -54.85 378.2 -71.65
M 372.2 -78.3
L 372.25 -66.45
Q 372.35 -55.7 372.05 -48.85 371.4 -37.3 369.4 -26.85 369.3 -26.25 369.05 -25.95 368.7 -25.55 367.6 -25.55 363.15 -25.75 357.2 -25.4 357.8 -49.9 357.25 -75.5 359.95 -75.45 364.05 -77 369.4 -79.1 370.8 -79.4 371.6 -79.6 371.9 -79.25 372.2 -78.95 372.2 -78.3
M 323.85 -79.15
Q 322.5 -78.1 322.6 -75.8 322.65 -75.2 323.25 -72.2 323.55 -70.65 323.55 -66.7
L 323.45 -47.9
Q 322.35 -49.85 319.55 -55 317.15 -59.55 315.6 -62.1 310.75 -70.1 305.3 -74.55 303.6 -75.95 302.2 -75.9 300.55 -75.8 298.7 -73.1 296.05 -69.2 293.05 -65.35 290.65 -62.3 290.15 -61.55 288.6 -59.4 287.7 -57.5 286.8 -55.45 285.65 -50.85 283.25 -41.1 282.55 -38.1 280.95 -30.9 280.35 -25.25 280.15 -22.55 280.85 -21.45 281.3513671875 -20.669921875 282.05 -20.35 282.3609375 -19.9353515625 282.8 -19.65 283.95 -18.8 286.4 -19.1 289.25 -19.45 294.85 -20.85 298.25 -21.75 299.85 -22.45 302.35 -23.55 303.75 -25.35 305.2 -27.15 305.55 -29.95 305.85 -32 305.55 -35.1 305.4 -36.85 305.5 -37.75 305.65 -39.25 306.45 -40.1 307.35 -41.05 309.35 -41.45
L 314.8 -33.45
Q 318.4 -28.05 320.8 -25.9 325 -22.15 329.5 -22.15 332.1 -22.25 333.6 -23.4 335.1 -24.5 336.25 -27.3 338.35 -32.4 338.95 -37.5 339.4 -40.75 339.3 -45.3 339.15 -51.55 337.95 -60.9
L 336 -76.5
Q 335.65 -78.7 335 -79.4 333.95 -80.45 331.6 -80.25 329.949609375 -80.1583984375 326.85 -79.4 326.2015625 -79.7470703125 325.4 -79.7 324.55 -79.65 323.85 -79.15
M 291.45 -49.65
Q 292.45 -53.45 293.4 -55.4 294.3 -57.3 296.75 -60.45
L 302.95 -68.6
Q 306.15 -65.7 309.1 -61.2 310.9 -58.45 314 -52.8 320.2 -41.2 322.15 -37.25 323.25 -34.95 324.2 -34.15 324.95 -33.5 325.85 -33.25 326.85 -33 327.65 -33.4 328.8 -33.9 329.25 -35.45 329.5 -36.3 329.5 -38.1
L 329.55 -66.7
Q 329.55 -70.91015625 329.25 -73.65 329.66796875 -73.8015625 330.1 -74 331.8 -63.5 332.75 -53.75 333.5 -45.8 333.2 -40.9 332.7 -33.6 330.15 -28.45 328.35 -27.95 326.55 -29.05 325.35 -29.75 323.7 -31.6 319.65 -36.15 316.55 -41.55 315.1 -44.05 314.35 -45.05 312.9 -46.8 311.2 -47.35 309.15 -47.95 306.55 -47 303.8 -46.05 301.9 -44 299.85 -41.85 299.5 -39.2 299.35 -38 299.5 -36.1 299.8 -33.45 299.8 -32.95 299.8 -31.2 299.15 -29.8 298.45 -28.2 297.1 -27.65 296.55 -27.4 295.7 -27.3 294.75 -27.2 294.25 -27.15 293.2 -27 291.2 -26.3 289.2 -25.6 288.15 -25.45 287.1330078125 -25.3755859375 286.35 -25.3 286.4400390625 -26.1626953125 286.85 -28.85 288.75 -39 291.45 -49.65
M 242.75 -32.85
Q 242.75 -29.55 242.5 -27.35 242.35 -25.9 241.75 -22.15 241.25 -18.9 241.15 -17 240.95 -14.2 242 -12.95 242.8 -12.1 244.1 -12.05 245.4 -12 246.2 -12.85 246.9 -13.55 247.1 -14.8 247.25 -15.5 247.25 -17.05 247.35 -19.05 247.85 -22.5 248.45 -26.45 248.55 -28 248.75 -29.9 248.75 -32.7 248.75 -34.25 248.75 -37.4 248.81171875 -40.48359375 249.1 -43.55 249.7513671875 -43.3099609375 250.65 -43.25 251.95 -43.1 253.25 -43.1
L 255.7 -43.05
Q 258.15 -43.05 259.35 -43.3 260.25 -43.5 261.95 -44.3 262.5755859375 -44.6126953125 263 -44.9 263.4181640625 -43.03046875 263.8 -41 264.3 -38.05 265.5 -30.55 266.25 -25 266.25 -22.7 266.25 -20.9 266.3 -20.35 266.5 -19.05 267.1 -18.3 267.8 -17.45 268.95 -17.3 270.1 -17.15 270.9 -17.8 272.2 -18.8 272.3 -21.55 272.5 -25.25 271.65 -30.45 271.15 -33.4 270.05 -39.25 269.65 -41.6 268.95 -46.2 268.5 -48.85 267.1 -53.65 263.65 -65.45 259.2 -77.45 258.4 -79.7 257.25 -80.3 256.3 -80.8 255.1 -80.45 254 -80.15 253.15 -79.3 251.5 -77.75 250.8 -74.7 250.2 -71.3 249.8 -69.6 249.5 -68.25 247.7 -63.5 243.1 -51.25 242.8 -38.4 242.8 -34.7 242.75 -32.85
M 251.5 -49.95
L 251.65 -50.3 251.85 -50.6
Q 252.45 -51.3 252.7 -51.45
L 253.15 -51.65 254.5 -52
Q 255.1 -52.2 256.5 -52.4 257.6 -52.6 258.1 -52.55
L 258.75 -51.75 259.2 -49.85 259.2 -49.7 259.1 -49.6
Q 258.6 -49.25 257.95 -49.15 257.55 -49.05 256.75 -49.05
L 251.3 -49.25 251.5 -49.95
M 254.75 -65.25
Q 255.6 -67.45 255.95 -69.1
L 259.25 -58.6
Q 258.7068359375 -58.6392578125 258 -58.6
L 255.55 -58.35
Q 253.5638671875 -58.1236328125 252 -57.7 252.636328125 -59.596875 253.35 -61.5 253.8 -62.75 254.75 -65.25 Z"/>

<path fill="#006A67" stroke="none" d="
M 651.15 -68.65
Q 650.5 -68.85 649.5 -69 648.2 -69.2 647.8 -69.3 647.1 -69.45 645.9 -69.9 644.55 -70.4 643.95 -70.55
L 640.7 -71.5
Q 639.2 -72.1 638.6 -72.65
L 637.9 -73.35
Q 637.5 -73.8 637.15 -73.95
L 636.3 -74.3
Q 635.85 -74.6 635.55 -75.45 635.4 -75.9 635.3 -77 635.15 -78.45 635.15 -78.55
L 634.8 -79.7 634.6 -80.9
Q 634.1064453125 -80.85 633.75 -80.85 633.265234375 -80.85 632.85 -81 632.8611328125 -80.81484375 632.85 -80.65 632.6 -76.9 633.65 -73.4 633.8 -72.7 634.1 -72
L 634.9 -70.55
Q 635.85 -68.8 636.8 -68.15 637.7 -67.4 639.3 -67.25 639.85 -67.15 641.95 -67.15 645.55 -67.2 652.75 -67.05
L 653.7 -67.15
Q 652.1962890625 -68.2892578125 651.15 -68.65
M 650.85 -91.2
Q 649.55 -92.05 648.1 -92.75
L 646.8 -93.3
Q 646.25 -93.45 644.95 -93.55 642.9 -93.6 640.7 -93.15 639.7705078125 -92.9109375 639.1 -92.9
L 637.75 -92.05
Q 636 -90.7 634.6 -87.75 633.9875 -86.36171875 633.55 -84.95 633.780078125 -84.96484375 634 -85 638 -85.65 641.35 -85.65 642.75 -85.65 645.5 -85.7 647.8 -85.85 649.45 -86.5
L 650.25 -86.85 650.9 -87.45
Q 651.6 -88.3 651.75 -88.95 652 -89.9 651.5 -90.55 651.35 -90.8 650.85 -91.2
M 550.45 -80.15
Q 549.8 -80.05 549.45 -80.05
L 543.8 -80.05 543.8 -80.3
Q 543.1583984375 -80.897265625 542.95 -81.85 542.7298828125 -83.2591796875 543.65 -84.3
L 543.4 -93.5 539.35 -92.85
Q 539.45 -92.4 539.15 -91.55 538.8 -90.7 538.85 -90.3 539.2 -89.6 539.35 -89.2 539.95 -88.05 539.75 -85.4 539.5302734375 -83.0388671875 539.4 -80.05
L 536.45 -80.05
Q 535.05 -80.05 534.35 -79.95
L 531.1 -79.55
Q 529.4572265625 -79.066796875 529 -77.45 527.8892578125 -77.2830078125 526.75 -77.1 526.5 -77.1 526.25 -76.95 526 -76.75 526 -76.1
L 525.95 -70.4 533.3 -70.45 533.3 -70.65
Q 533.7130859375 -70.6 534.2 -70.6
L 538.7 -70.5
Q 538.1 -67.05 538.2 -63.2 538.2 -62.1 538.45 -61.4 538.6962890625 -60.7021484375 539.25 -60.2 539.26640625 -53.511328125 539.1 -50.25
L 544.1 -49 544.1 -61.75
Q 544.280859375 -62.5130859375 544.2 -64.05 544.15 -66.75 544.85 -70.6 547.586328125 -70.810546875 549.9 -70.85
L 549.9 -70.75
Q 550.4203125 -70.7806640625 551 -70.85 552.1677734375 -70.99453125 553.55 -71.2 554.75 -71.3791015625 556.1 -71.6 556.2 -76.6 556.05 -80.7
L 551.45 -80.1
Q 551.4279296875 -80.0927734375 551.4 -80.1 551 -80.2 550.45 -80.15
M 480.05 -52.6
Q 480.25 -51.9 480.75 -51.15
L 484.3 -45.15
Q 485 -44 485.65 -43.7 486.05 -43.5 486.9 -43.5 489.4 -43.5 490.2 -43.65 491.45 -43.8 493.5 -44.6 496.3 -45.65 497.65 -46.8 499.35 -48.25 500.1 -50.55 500.8 -52.75 500.4 -55.05 500.294140625 -55.6181640625 500.15 -56.15 498.790234375 -58.9029296875 496.1 -60.2 494.5 -60.9 491.55 -61.3
L 490.55 -61.45
Q 489.97578125 -61.314453125 489.3 -61.05 488.4 -60.7 487.9 -60.25 487.15 -59.4 486.7 -59 485.4 -57.85 483.75 -58.45 482.1 -59.1 481.85 -60.8 480.65 -59.3 480.3 -58.4 479.7 -56.95 479.9 -53.85 479.9 -53.2 480.05 -52.6
M 592.95 -78
Q 589.4 -78 587.45 -76.95 587.05 -76.75 586.9 -76.55 586.8 -76.45 586.55 -75.65 586.15 -74.7 585.2 -74.2 584.2 -73.7 583.2 -73.95 582.7 -74.1 582.55 -74.05 582.35 -74.05 582 -73.7 581 -72.55 581.3 -69.6 581.5 -67.85 581.8 -67.3 582.4 -66.1 584.5 -64.8 587.1 -63.25 587.5 -63.05 590.25 -61.65 593 -61.6 596 -61.5 598.45 -63
L 599.85 -64.1
Q 601.7 -65.6 603.15 -67.15 603.9 -67.9 604.15 -68.55 604.45 -69.25 604.35 -70.2 604.3 -71.55 603.65 -72.9 603.2 -73.8 602.35 -74.9 601.45 -76.1 600.7 -76.65 599.4 -77.6 596.3 -77.9
L 592.95 -78
M 401.15 -70.15
Q 400.8 -69.45 400.45 -68.15 400.05 -66.55 399.9 -66.15 399.8 -65.85 398.7 -63.55 397.4 -60.65 396.45 -54.95 395.1 -47.3 394.95 -42.9 394.85 -39.85 395.2 -35 395.7 -28.45 395.75 -27.1 395.85 -25.8 396.1 -25.35 396.45 -24.75 397.5 -24.05 399.05 -22.95 399.65 -22.75 400.3 -22.55 400.9 -22.7 401.6 -22.9 401.9 -23.4 402.1 -23.8 402.1 -24.7
L 402.1 -30.05
Q 402.1 -32.85 401.95 -34.2 401.8 -35.95 401.35 -39.45 401.15 -41.75 401.2 -44.15 401.2 -47.35 401.6 -48.9 402.65 -53.25 408 -58.2 409.7 -59.8 410.85 -60.4 412.2 -61.15 413.8 -61.3 415.3 -61.45 416.35 -60.9 417.25 -60.45 417.95 -59.4 418.35 -58.75 418.95 -57.35
L 420.85 -52.85
Q 422.6 -48.6 424.4 -47 425.75 -45.85 426.9 -46.15 427.7 -48.15 428.9 -52.35 430.15 -55.95 431.85 -57.95 433.2 -59.45 436.1 -61.4 438 -62.6 439 -62.95 440.85 -63.55 442.25 -63 444.55 -62.05 445.35 -58.25 445.85 -56.1 446 -53.6 446.5 -46.75 446.9 -43.35 447.55 -37.45 449 -33.35 449.45 -31.95 450.25 -31.35 450.65 -34.55 450.75 -36.15 451 -39.3 451.35 -45.65
L 452.3 -53.9
Q 452.7 -57.05 455.3 -71.1 455.8 -73.85 455.9 -75.35 456.05 -77.8 455.6 -79.65 455.4 -80.3 455.15 -80.55 454.85 -80.8 454.2 -80.9
L 442.25 -83.5
Q 439.55 -80 436.95 -75.2 435.25 -72.15 432.55 -66.3 430.55 -62.15 430.05 -59.75 429.5 -57.6 429.1 -57.05 428.55 -56.2 427.55 -55.85 426.55 -55.55 425.6 -55.9 424.2 -56.55 423.65 -58.5 423.45 -59.4 423.45 -61.85 423.5 -65.65 422.4 -73.05 422.1 -75.15 421.7 -76.15 421.4 -77.05 420.2 -79
L 418.35 -81.9
Q 415.35 -81.7 413.95 -81.45 411.5 -81 409.8 -79.95 408.6 -79.2 406.9 -77.5 405.65 -76.2 403.35 -73.4 401.7 -71.45 401.15 -70.15
M 354 -127.45
Q 352.6 -126.45 351.55 -123.8 350.95 -122.1 350.7 -120.75 350.35 -118.9 350.3 -117.45 350.3 -115.1 350.65 -114 351.15 -112.65 352.7 -110.5
L 354.9 -107.5
Q 355.45 -106.75 355.85 -106.55 356.25 -106.35 357.1 -106.35 358.85 -106.45 360.85 -107.45 362.15 -108.05 364.3 -109.55 365.65 -110.55 366.15 -110.95 367.05 -111.85 367.4 -112.8 367.65 -113.35 367.75 -115.5 367.85 -118.15 367.7 -118.9 367.65 -119.35 367.15 -120.65 364.9 -126.25 363.1 -128.55 362.6 -129.15 362.2 -129.35 361.8 -129.55 360.8 -129.55
L 359.65 -129.5
Q 359 -129.35 358.2 -128.9 357.35 -128.3 356.9 -128.05 355.25 -127 354 -127.45
M 352.7 -122.7
Q 353.15 -123.35 353.9 -123.05 354.7 -122.7 354.5 -121.95 354.4 -121.55 354.15 -121.35 353.65 -120.9 353.05 -121.25 352.45 -121.6 352.55 -122.25
L 352.7 -122.7
M 360.6 -123
Q 360.7 -123.05 360.6 -123.15
L 360.7 -123.25
Q 360.95 -123.8 361.65 -123.8 362.35 -123.7 362.5 -123.1 362.75 -122.6 362.3 -122.1 361.9 -121.7 361.3 -121.85 360.8 -121.9 360.6 -122.55 360.55 -122.75 360.6 -123
M 358.3 -114.85
L 357.95 -114.75 357.55 -114.7 355.85 -114.7 355.45 -114.75
Q 355.1 -114.85 354.95 -115.1
L 354.85 -115.25 354.75 -115.55
Q 354.65 -115.95 354.9 -116.25 355.1 -116.6 355.6 -116.7
L 356 -116.75 357.25 -116.7 359.9 -117.05
Q 360.45 -117.15 360.75 -116.95
L 361.05 -116.75
Q 361.3 -116.5 361.3 -116.05 361.3 -115.65 361.05 -115.4 360.95 -115.2 360.75 -115.15
L 358.3 -114.85
M 372.25 -66.45
L 372.2 -78.3
Q 372.2 -78.95 371.9 -79.25 371.6 -79.6 370.8 -79.4 369.4 -79.1 364.05 -77 359.95 -75.45 357.25 -75.5 357.8 -49.9 357.2 -25.4 363.15 -25.75 367.6 -25.55 368.7 -25.55 369.05 -25.95 369.3 -26.25 369.4 -26.85 371.4 -37.3 372.05 -48.85 372.35 -55.7 372.25 -66.45
M 293.4 -55.4
Q 292.45 -53.45 291.45 -49.65 288.75 -39 286.85 -28.85 286.4400390625 -26.1626953125 286.35 -25.3 287.1330078125 -25.3755859375 288.15 -25.45 289.2 -25.6 291.2 -26.3 293.2 -27 294.25 -27.15 294.75 -27.2 295.7 -27.3 296.55 -27.4 297.1 -27.65 298.45 -28.2 299.15 -29.8 299.8 -31.2 299.8 -32.95 299.8 -33.45 299.5 -36.1 299.35 -38 299.5 -39.2 299.85 -41.85 301.9 -44 303.8 -46.05 306.55 -47 309.15 -47.95 311.2 -47.35 312.9 -46.8 314.35 -45.05 315.1 -44.05 316.55 -41.55 319.65 -36.15 323.7 -31.6 325.35 -29.75 326.55 -29.05 328.35 -27.95 330.15 -28.45 332.7 -33.6 333.2 -40.9 333.5 -45.8 332.75 -53.75 331.8 -63.5 330.1 -74 329.66796875 -73.8015625 329.25 -73.65 329.55 -70.91015625 329.55 -66.7
L 329.5 -38.1
Q 329.5 -36.3 329.25 -35.45 328.8 -33.9 327.65 -33.4 326.85 -33 325.85 -33.25 324.95 -33.5 324.2 -34.15 323.25 -34.95 322.15 -37.25 320.2 -41.2 314 -52.8 310.9 -58.45 309.1 -61.2 306.15 -65.7 302.95 -68.6
L 296.75 -60.45
Q 294.3 -57.3 293.4 -55.4
M 255.95 -69.1
Q 255.6 -67.45 254.75 -65.25 253.8 -62.75 253.35 -61.5 252.636328125 -59.596875 252 -57.7 253.5638671875 -58.1236328125 255.55 -58.35
L 258 -58.6
Q 258.7068359375 -58.6392578125 259.25 -58.6
L 255.95 -69.1
M 251.65 -50.3
L 251.5 -49.95 251.3 -49.25 256.75 -49.05
Q 257.55 -49.05 257.95 -49.15 258.6 -49.25 259.1 -49.6
L 259.2 -49.7 259.2 -49.85 258.75 -51.75 258.1 -52.55
Q 257.6 -52.6 256.5 -52.4 255.1 -52.2 254.5 -52
L 253.15 -51.65 252.7 -51.45
Q 252.45 -51.3 251.85 -50.6
L 251.65 -50.3 Z"/>

<path fill="#00CCFF" stroke="none" d="
M 206.8 -71.45
Q 206.55 -70.7 206.45 -69.1 206.05 -59.25 205.9 -45.85 205.8779296875 -38.994140625 205.85 -33.65 205.5201171875 -33.7404296875 205.15 -33.8 203.3 -34.05 201.7 -33.45 200.5 -33 198.65 -31.65
L 195.75 -29.5
Q 194.1 -28.2 193.5 -27.45 192.9 -26.6 192.4 -24.95 191.5 -21.65 192.6 -19.35 192.75 -19.1 193.9 -17.4 194.45 -16.55 195.5 -14.85 196.5 -13.4 197.5 -12.65 198.15 -12.2 200.45 -11.15
L 203.45 -9.65
Q 204.86015625 -9.167578125 205.95 -9.4 206.2373046875 -9.278125 206.55 -9.2 207.05 -9.05 208.15 -9.05
L 209.4 -9.05
Q 210.05 -9.05 210.35 -9.15
L 211.15 -9.4
Q 211.1908203125 -9.419140625 211.2 -9.45 212.146484375 -9.3 213.35 -9.3 216.05 -9.2 217.45 -9.8 219.6 -10.65 221.7 -14.3 224.6 -19.35 225.55 -24 226.2 -27.05 226.2 -32.6 226.2 -37.8 225.9 -44.85 225.7 -48.95 225.25 -57.1 225.05 -61.5 224.85 -63.3 224.5 -66.75 223.65 -69.35 222.4 -73.3 219.85 -74.15 218.65 -74.6 216.45 -74.3 214.4 -73.9 213.35 -73.7 211.55 -73.35 210.25 -73.35 208.75 -73.35 208.3 -73.2 207.25 -72.8 206.8 -71.45
M 212.4 -67.5
Q 215.05 -67.75 217.5 -68.4 218.45 -66.05 218.85 -62.9 219.1 -61.05 219.25 -57.2 219.7 -48.35 219.9 -43.9 220.25 -36.15 220.15 -30.55 220.05 -26 219.35 -23.55 218.75 -21.25 216.15 -16.6 215.65 -15.8 215.25 -15.55 214.8 -15.35 213.95 -15.4 213 -15.5 212.6 -15.4 211.85 -16.9 211.85 -20.3 211.75 -51.8 212.4 -67.5
M 201 -17.7
Q 200.45 -18.25 199.75 -19.35
L 198.55 -21.2
Q 197.9 -22.25 197.95 -22.75 198 -23.65 199.3 -24.6
L 202.85 -27.25
Q 203.45 -27.75 203.9 -27.8 204.15 -27.85 204.6 -27.7
L 205.25 -27.5
Q 205.544921875 -27.415625 205.8 -27.4 205.813671875 -24.674609375 205.8 -22.55 205.75 -19.45 205.9 -17.75 206.0302734375 -16.369140625 206.3 -15.2 205.8884765625 -15.3642578125 205.35 -15.55
L 203 -16.55
Q 201.6 -17.15 201 -17.7
M 156.6 -39.25
Q 155.254296875 -39.25 154.45 -39.1 153.484765625 -39.16953125 152.35 -38.8 150.9 -38.3 149.05 -36.7 145.85 -33.85 143.9 -29.75 142.5 -26.75 141.6 -21.9 140.7 -16.55 141.15 -13.1 141.85 -8.15 145.15 -4.15 148.5 -0.1 153.2 1.45 157.8 3 163.55 2.25 167.1 1.85 173.65 -0.25 182 -3.05 187.3 -6.3 189.85 -7.9 190.6 -9.2 191.25 -10.2 191.3 -11.3 191.4 -12.5 190.8 -13.4 190.2 -14.25 189.1 -14.5 187.95 -14.75 187.05 -14.2 186.55 -13.9 185.95 -13.2 185.35 -12.4 185 -12.05 184.25 -11.3 182.55 -10.35 179.1 -8.55 171.7 -5.95 166.15 -4.05 162.85 -3.6 157.65 -2.9 153.85 -4.7 151.05 -6 149.2 -8.6 147.35 -11.2 147 -14.25 146.8931640625 -15.140234375 146.9 -16.2 147.3939453125 -16.15 147.95 -16.15 152.05 -16.25 154.55 -17.2 155.7 -17.65 157.9 -18.8
L 161.5 -20.45
Q 163.5 -21.5 164.35 -23.1 165 -24.3 165 -26 165 -27.05 164.7 -29.1
L 164.15 -32.5
Q 163.7 -35 163.35 -35.85 162.6 -37.7 161.2 -38.55 160.3 -39.05 159 -39.2 158.45 -39.25 156.6 -39.25
M 157.2 -33.25
Q 157.65 -33.25 157.9 -33.05 158 -32.95 158.1 -32.6 158.55 -30.7 158.95 -26.7 159.05 -26.15 158.85 -25.85 158.65 -25.5 157.85 -25.3 156.85 -25 154.05 -23.6 151.7 -22.4 150.15 -22.25 148.6744140625 -22.25 147.8 -22.25 149.2650390625 -28.4876953125 152.1 -31.5 153.2 -32.5 153.9 -32.75 154.25 -32.85 155.05 -33 155.737109375 -33.0916015625 156.1 -33.25 156.5810546875 -33.2271484375 157.2 -33.25
M 109.95 -26.65
Q 111.9 -28.5 115.2 -29.65 120 -31.2 122.75 -29.25 123.35 -28.85 124.2 -27.9 125.15 -26.9 125.65 -26.55 125.7 -26.5 127.45 -25.4 128.55 -24.7 129 -24 129.65 -23.1 129.75 -21.05 129.95 -18.2 129.95 -12.6 129.95 -8.55 129.85 -6.9 129.7 -3.75 129.15 -1.3 128.6 1.1 128.6 2.05 128.5 4.1 129.8 5.15 130.55 5.85 131.65 5.8 132.8 5.75 133.5 5 134.3 4.25 134.7 2.2 136.5 -6.65 135.75 -20.65 135.55 -24.9 134.4 -26.8 133.65 -28.1 132.05 -29.4 130.2 -30.8 129.25 -31.55 127.8 -32.8 127.1 -33.4 125.8 -34.45 124.8 -35 119.9 -37.7 112.75 -35.15 108.2 -33.45 105.4 -30.65 102.45 -27.6 100.75 -22.65 98.8 -16.9 98.55 -8.4 98.65 1.4 98.5 6.2 98.4 9.4 99.55 10.55 100.35 11.4 101.6 11.35 102.9 11.3 103.65 10.4 104.55 9.4 104.55 6.95 104.7 2.4 104.45 -6.9 104.55 -15.05 106.35 -20.45 107.65 -24.5 109.95 -26.65
M 79.85 -30.65
Q 79.5716796875 -30.7111328125 79.3 -30.75 78.4541015625 -31.1787109375 77.3 -31.1 74.8 -30.85 72.6 -27.35 71.25 -25.3 70.1 -22.55 69.7 -21.5 68.4 -17.25 66.6 -10.95 66.2 -7.7 65.45 -2.3 66.85 1.95 67.55 4.15 69.3 7 70.95 9.65 72.8 11.2 75.15 13.15 78.45 13.9 81.55 14.55 84.8 14 87.65 13.5 89.85 12.1 92.35 10.5 93.25 8.15 93.95 6.15 93.3 4.75 92.55 3.35 91.05 3.2 89.5 3.05 88.5 4.2 88.25 4.55 87.85 5.35 87.45 6.15 87.15 6.5 86.15 7.8 83.6 8.1 79 8.75 76.4 6.4 75.3 5.45 74.05 3.25 72.75 0.95 72.4 -0.25 71.95 -1.65 71.95 -3.6 71.9005859375 -6.1244140625 72.5 -9.25 73.3798828125 -9.05 74.7 -9.05 78.45 -9.05 79.85 -9.3 84.45 -10.2 89.65 -15.5 91.75 -17.6 92.5 -19.25 93.65 -21.7 92.45 -23.75 91.6 -25.15 89.1 -26.3
L 83.15 -29.3
Q 80.9 -30.4 79.85 -30.65
M 78.15 -24.35
Q 78.5109375 -24.378125 79.05 -24.45 79.4 -24.45 80 -24.15
L 86.55 -20.9
Q 85 -19.05 82.5 -17.1 80.3 -15.45 78.6 -15.2 78 -15.1 76.75 -15.1
L 74.45 -15.15
Q 74.252734375 -15.15 74.05 -15.15 74.7455078125 -17.5818359375 75.65 -20.2 76.71015625 -23.15 78.15 -24.35
M 13.3 -34
Q 11.05 -32.65 10.35 -31 9.75 -29.75 9.85 -26.55 9.95 -22.25 10.25 -20.6 10.6 -18.3 11.65 -15.4 11.7 -15.3 13.6 -10.35 15.75 -4.75 17.65 2.55 18.7 6.5 20.8 15.75 21.7 19.7 21.95 21.85 22.3 24.15 22.85 24.9 23.75 26.15 25.3 26.05 26.85 25.9 27.65 24.55 27.7474609375 24.37265625 27.8 24.15 32.007421875 24.4447265625 35.4 22 38.75 19.55 39.8 15.45 40.25 13.75 40.25 11.15 40.15 8.25 40.2 6.8 40.25 5.15 40.25 4.3 40.25 2.85 39.95 1.85 39.75 1.15 39.2 0.05 38.6 -1.25 38.4 -1.75
L 37.6 -4.3
Q 37.3 -5.2 36.5 -6.95 36.35 -7.4 36 -8.35 35.7 -9.15 35.3 -9.6 35.064453125 -9.8796875 34.75 -10.1 39.10625 -10.29609375 42 -11.15 44.3 -11.85 47.15 -13.5 51.55 -15.9 53.95 -18.45 57.15 -21.9 57.65 -25.9 57.9 -28.45 56.85 -30.05 55.85 -31.65 53.2 -32.8 49.5 -34.4 42.55 -35.35 31.2 -36.95 23.2 -36.45 16.8 -36.05 13.3 -34
M 16.1 -28.4
Q 16.3 -28.75 17.15 -29.2 20.15 -30.5 25.6 -30.6 33.8 -30.65 43.35 -29.2 48.25 -28.4 50.55 -27.45 51.35 -27.15 51.55 -26.65 51.75 -26.2 51.45 -25.45 50.7 -23.5 48.45 -21.6 45.55 -19 41.8 -17.55 38.1 -16.1 34.15 -15.95 31.1 -16 29.55 -15.9 28.5 -15.8 24 -14.8 20.65 -14.05 18.45 -14.35 15.45 -20.6 15.9 -27.45 15.9 -28 16.1 -28.4
M 20.75 -8.15
L 29.75 -9.75 31.25 -9.85
Q 31.06796875 -9.673828125 30.9 -9.45 29.9 -8.1 30.45 -5.85 30.8 -4.65 31.85 -2.4 32.3 -1.3 33 0.9 33.2 1.4 33.65 2.3 34.05 3.15 34.15 3.75 34.3 4.5 34.2 6.65 34.15 7.3 34.25 9.95 34.35 12 34.1 13.25 33.75 15.05 32.7 16.3 31.6 17.75 30.05 18 29.45 18.1 27.65 17.85 27.4916015625 17.8341796875 27.35 17.8 27.1287109375 16.72421875 26.85 15.4 24.25 3.2 20.75 -8.15
M 1.55 -23.05
Q 1.05 -23.8 0.2 -25.55 -0.6 -27 -1.6 -27.5 -2.65 -28.05 -5.55 -27.95 -5.8 -27.95 -9.8 -28 -12.4 -28.05 -14.05 -27.7
L -16.6 -26.95
Q -18 -26.55 -20.85 -25.75 -23.15 -24.9 -25.6 -23.05 -27.15 -21.9 -29.8 -19.45 -33 -16.55 -33.9 -14.6 -34.7 -12.85 -35 -9.75 -35.3 -7 -35.3 -3.25 -35.35 -1.05 -35.3 3.2 -35.4 10.05 -34.9 13 -33.95 18.65 -30.65 21.65 -27.75 24.35 -23 25.1 -20.05 25.65 -14.55 25.25 -9.75 24.9 -6.75 23.95 -2.55 22.7 0 19.95 0.75 19.1 1.65 17.7 2.6 16.05 3.1 15.25 4.7 12.9 5.45 11.7 6.8 9.55 7.45 7.95 8.45 5.4 8.75 1.9 8.85 0.3 8.85 -4.4 8.85 -9.4 8.55 -11.35 8.05 -15.3 6.15 -17.85 5.55 -18.65 3.8 -20.4 2.25 -21.95 1.55 -23.05
M 2.75 -5.45
Q 2.85 -2.1 2.85 -0.4 2.85 2.55 2.25 4.55 1.7 6.45 0.1 8.9 -0.8 10.25 -2.6 13 -2.9 13.55 -3.55 14.65 -4.15 15.6 -4.7 16.2 -6.3 17.8 -10.05 18.65 -14.25 19.5 -18.95 19.5 -23.85 19.4 -26.1 17.55 -28.15 15.8 -28.95 12.55 -29.35 10.7 -29.35 6.8
L -29.35 -5.15
Q -29.35 -7.9 -29.1 -9.4 -28.75 -11.7 -27.65 -13.2 -27.05 -14 -25.55 -15.3
L -23.05 -17.45
Q -22.55 -17.95 -22.1 -18 -21.75 -18.05 -21.15 -17.85 -19.4 -17.45 -17.3 -19 -15.2 -20.75 -13.95 -21.3 -12.3 -22.1 -9.35 -21.95 -5.5 -21.8 -4.55 -21.95 -3.9 -19.95 -1.1 -17 1.75 -13.95 2.4 -12.05 2.85 -10.7 2.85 -8.8 2.8 -6.55 2.75 -5.45 Z"/>

<path fill="#0094CB" stroke="none" d="
M 199.75 -19.35
Q 200.45 -18.25 201 -17.7 201.6 -17.15 203 -16.55
L 205.35 -15.55
Q 205.8884765625 -15.3642578125 206.3 -15.2 206.0302734375 -16.369140625 205.9 -17.75 205.75 -19.45 205.8 -22.55 205.813671875 -24.674609375 205.8 -27.4 205.544921875 -27.415625 205.25 -27.5
L 204.6 -27.7
Q 204.15 -27.85 203.9 -27.8 203.45 -27.75 202.85 -27.25
L 199.3 -24.6
Q 198 -23.65 197.95 -22.75 197.9 -22.25 198.55 -21.2
L 199.75 -19.35
M 217.5 -68.4
Q 215.05 -67.75 212.4 -67.5 211.75 -51.8 211.85 -20.3 211.85 -16.9 212.6 -15.4 213 -15.5 213.95 -15.4 214.8 -15.35 215.25 -15.55 215.65 -15.8 216.15 -16.6 218.75 -21.25 219.35 -23.55 220.05 -26 220.15 -30.55 220.25 -36.15 219.9 -43.9 219.7 -48.35 219.25 -57.2 219.1 -61.05 218.85 -62.9 218.45 -66.05 217.5 -68.4
M 157.9 -33.05
Q 157.65 -33.25 157.2 -33.25 156.5810546875 -33.2271484375 156.1 -33.25 155.737109375 -33.0916015625 155.05 -33 154.25 -32.85 153.9 -32.75 153.2 -32.5 152.1 -31.5 149.2650390625 -28.4876953125 147.8 -22.25 148.6744140625 -22.25 150.15 -22.25 151.7 -22.4 154.05 -23.6 156.85 -25 157.85 -25.3 158.65 -25.5 158.85 -25.85 159.05 -26.15 158.95 -26.7 158.55 -30.7 158.1 -32.6 158 -32.95 157.9 -33.05
M 79.05 -24.45
Q 78.5109375 -24.378125 78.15 -24.35 76.71015625 -23.15 75.65 -20.2 74.7455078125 -17.5818359375 74.05 -15.15 74.252734375 -15.15 74.45 -15.15
L 76.75 -15.1
Q 78 -15.1 78.6 -15.2 80.3 -15.45 82.5 -17.1 85 -19.05 86.55 -20.9
L 80 -24.15
Q 79.4 -24.45 79.05 -24.45
M 29.75 -9.75
L 20.75 -8.15
Q 24.25 3.2 26.85 15.4 27.1287109375 16.72421875 27.35 17.8 27.4916015625 17.8341796875 27.65 17.85 29.45 18.1 30.05 18 31.6 17.75 32.7 16.3 33.75 15.05 34.1 13.25 34.35 12 34.25 9.95 34.15 7.3 34.2 6.65 34.3 4.5 34.15 3.75 34.05 3.15 33.65 2.3 33.2 1.4 33 0.9 32.3 -1.3 31.85 -2.4 30.8 -4.65 30.45 -5.85 29.9 -8.1 30.9 -9.45 31.06796875 -9.673828125 31.25 -9.85
L 29.75 -9.75
M 17.15 -29.2
Q 16.3 -28.75 16.1 -28.4 15.9 -28 15.9 -27.45 15.45 -20.6 18.45 -14.35 20.65 -14.05 24 -14.8 28.5 -15.8 29.55 -15.9 31.1 -16 34.15 -15.95 38.1 -16.1 41.8 -17.55 45.55 -19 48.45 -21.6 50.7 -23.5 51.45 -25.45 51.75 -26.2 51.55 -26.65 51.35 -27.15 50.55 -27.45 48.25 -28.4 43.35 -29.2 33.8 -30.65 25.6 -30.6 20.15 -30.5 17.15 -29.2
M 2.85 -0.4
Q 2.85 -2.1 2.75 -5.45 2.8 -6.55 2.85 -8.8 2.85 -10.7 2.4 -12.05 1.75 -13.95 -1.1 -17 -3.9 -19.95 -4.55 -21.95 -5.5 -21.8 -9.35 -21.95 -12.3 -22.1 -13.95 -21.3 -15.2 -20.75 -17.3 -19 -19.4 -17.45 -21.15 -17.85 -21.75 -18.05 -22.1 -18 -22.55 -17.95 -23.05 -17.45
L -25.55 -15.3
Q -27.05 -14 -27.65 -13.2 -28.75 -11.7 -29.1 -9.4 -29.35 -7.9 -29.35 -5.15
L -29.35 6.8
Q -29.35 10.7 -28.95 12.55 -28.15 15.8 -26.1 17.55 -23.85 19.4 -18.95 19.5 -14.25 19.5 -10.05 18.65 -6.3 17.8 -4.7 16.2 -4.15 15.6 -3.55 14.65 -2.9 13.55 -2.6 13 -0.8 10.25 0.1 8.9 1.7 6.45 2.25 4.55 2.85 2.55 2.85 -0.4 Z"/>
</g>
</defs>

<g transform="matrix( 1.4176025390625, 0, 0, 1.7977752685546875, 66.8,448.45) ">
<g transform="matrix( 1, 0, 0, 1, 0,0) ">
<use xlink:href="#OpenedAnimate_Logo_0_Layer0_0_FILL"/>
</g>
</g>
</svg>
